<mxfile host="app.diagrams.net" modified="2023-03-27T16:31:40.844Z" agent="Mozilla/5.0 (Windows NT 10.0; Win64; x64; rv:109.0) Gecko/20100101 Firefox/111.0" etag="s8JkFGqJCbfl2PN28IBA" version="21.1.1">
  <diagram name="Page-1" id="YwziwpEPCa5_5QoXOCSv">
    <mxGraphModel dx="1574" dy="366" grid="0" gridSize="10" guides="1" tooltips="1" connect="1" arrows="1" fold="1" page="1" pageScale="1" pageWidth="850" pageHeight="1100" math="0" shadow="0">
      <root>
        <mxCell id="0" />
        <mxCell id="1" parent="0" />
        <mxCell id="MmHxZjk0SOA4-LWG_Dqx-1" value="ColorCar.CarFactory" style="swimlane;fontStyle=1;align=center;verticalAlign=top;childLayout=stackLayout;horizontal=1;startSize=26;horizontalStack=0;resizeParent=1;resizeParentMax=0;resizeLast=0;collapsible=1;marginBottom=0;whiteSpace=wrap;html=1;fillColor=#66B2FF;" vertex="1" parent="1">
          <mxGeometry x="-80" y="480" width="160" height="86" as="geometry" />
        </mxCell>
        <mxCell id="MmHxZjk0SOA4-LWG_Dqx-2" value="+ getCarModel(): CG.ColorCar.Car.Car.Car.Car.Car.Car.Car.Car.Car.Car.Car.Car.Car.Car.Car.Car.Car.Car.Car.Car.Car.Car.Car.Car.Car.Car.Car.Car.Car.Car.Car.Car.Car.Car.Car.Car.Car.Car.Car.Car.Car.Car.Car.Car.Car.Car.Car.Car.Car.Car.Car.Car.Car.Car.Car.Car.Car.Car.Car.Car.Car.Car.Car.Car" style="text;strokeColor=none;fillColor=none;align=left;verticalAlign=top;spacingLeft=4;spacingRight=4;overflow=hidden;rotatable=0;points=[[0,0.5],[1,0.5]];portConstraint=eastwest;whiteSpace=wrap;html=1;" vertex="1" parent="MmHxZjk0SOA4-LWG_Dqx-1">
          <mxGeometry y="26" width="160" height="26" as="geometry" />
        </mxCell>
        <mxCell id="MmHxZjk0SOA4-LWG_Dqx-3" value="" style="line;strokeWidth=1;fillColor=none;align=left;verticalAlign=middle;spacingTop=-1;spacingLeft=3;spacingRight=3;rotatable=0;labelPosition=right;points=[];portConstraint=eastwest;strokeColor=inherit;" vertex="1" parent="MmHxZjk0SOA4-LWG_Dqx-1">
          <mxGeometry y="52" width="160" height="8" as="geometry" />
        </mxCell>
        <mxCell id="MmHxZjk0SOA4-LWG_Dqx-4" value="+ method(type): type" style="text;strokeColor=none;fillColor=none;align=left;verticalAlign=top;spacingLeft=4;spacingRight=4;overflow=hidden;rotatable=0;points=[[0,0.5],[1,0.5]];portConstraint=eastwest;whiteSpace=wrap;html=1;" vertex="1" parent="MmHxZjk0SOA4-LWG_Dqx-1">
          <mxGeometry y="60" width="160" height="26" as="geometry" />
        </mxCell>
        <mxCell id="MmHxZjk0SOA4-LWG_Dqx-5" value="CG.ColorCar.Car.Car.Car.Car.Car.Car.Car.Car.Car.Car.Car.Car.Car.Car.Car.Car.Car.Car.Car.Car.Car.Car.Car.Car.Car.Car.Car.Car.Car.Car.Car.Car.Car.Car.Car.Car.Car.Car.Car.Car.Car.Car.Car.Car.Car.Car.Car.Car.Car.Car.Car.Car.Car.Car.Car.Car.Car.Car.Car.Car.Car.Car.Car.Car" style="swimlane;fontStyle=1;align=center;verticalAlign=top;childLayout=stackLayout;horizontal=1;startSize=26;horizontalStack=0;resizeParent=1;resizeParentMax=0;resizeLast=0;collapsible=1;marginBottom=0;whiteSpace=wrap;html=1;fillColor=#66B2FF;" vertex="1" parent="1">
          <mxGeometry x="160" y="480" width="160" height="86" as="geometry" />
        </mxCell>
        <mxCell id="MmHxZjk0SOA4-LWG_Dqx-6" value="+ getInfo(): void" style="text;strokeColor=none;fillColor=none;align=left;verticalAlign=top;spacingLeft=4;spacingRight=4;overflow=hidden;rotatable=0;points=[[0,0.5],[1,0.5]];portConstraint=eastwest;whiteSpace=wrap;html=1;" vertex="1" parent="MmHxZjk0SOA4-LWG_Dqx-5">
          <mxGeometry y="26" width="160" height="26" as="geometry" />
        </mxCell>
        <mxCell id="MmHxZjk0SOA4-LWG_Dqx-7" value="" style="line;strokeWidth=1;fillColor=none;align=left;verticalAlign=middle;spacingTop=-1;spacingLeft=3;spacingRight=3;rotatable=0;labelPosition=right;points=[];portConstraint=eastwest;strokeColor=inherit;" vertex="1" parent="MmHxZjk0SOA4-LWG_Dqx-5">
          <mxGeometry y="52" width="160" height="8" as="geometry" />
        </mxCell>
        <mxCell id="MmHxZjk0SOA4-LWG_Dqx-8" value="+ method(type): type" style="text;strokeColor=none;fillColor=none;align=left;verticalAlign=top;spacingLeft=4;spacingRight=4;overflow=hidden;rotatable=0;points=[[0,0.5],[1,0.5]];portConstraint=eastwest;whiteSpace=wrap;html=1;" vertex="1" parent="MmHxZjk0SOA4-LWG_Dqx-5">
          <mxGeometry y="60" width="160" height="26" as="geometry" />
        </mxCell>
        <mxCell id="MmHxZjk0SOA4-LWG_Dqx-19" style="edgeStyle=orthogonalEdgeStyle;rounded=0;orthogonalLoop=1;jettySize=auto;html=1;entryX=0.5;entryY=1;entryDx=0;entryDy=0;" edge="1" parent="1" source="MmHxZjk0SOA4-LWG_Dqx-9" target="MmHxZjk0SOA4-LWG_Dqx-1">
          <mxGeometry relative="1" as="geometry">
            <Array as="points" />
          </mxGeometry>
        </mxCell>
        <mxCell id="MmHxZjk0SOA4-LWG_Dqx-9" value="Client" style="swimlane;fontStyle=1;align=center;verticalAlign=top;childLayout=stackLayout;horizontal=1;startSize=26;horizontalStack=0;resizeParent=1;resizeParentMax=0;resizeLast=0;collapsible=1;marginBottom=0;whiteSpace=wrap;html=1;fillColor=#66B2FF;" vertex="1" parent="1">
          <mxGeometry x="-70" y="640" width="140" height="108" as="geometry" />
        </mxCell>
        <mxCell id="MmHxZjk0SOA4-LWG_Dqx-10" value="+ main: void" style="text;strokeColor=none;fillColor=none;align=left;verticalAlign=top;spacingLeft=4;spacingRight=4;overflow=hidden;rotatable=0;points=[[0,0.5],[1,0.5]];portConstraint=eastwest;whiteSpace=wrap;html=1;" vertex="1" parent="MmHxZjk0SOA4-LWG_Dqx-9">
          <mxGeometry y="26" width="140" height="74" as="geometry" />
        </mxCell>
        <mxCell id="MmHxZjk0SOA4-LWG_Dqx-11" value="" style="line;strokeWidth=1;fillColor=none;align=left;verticalAlign=middle;spacingTop=-1;spacingLeft=3;spacingRight=3;rotatable=0;labelPosition=right;points=[];portConstraint=eastwest;strokeColor=inherit;" vertex="1" parent="MmHxZjk0SOA4-LWG_Dqx-9">
          <mxGeometry y="100" width="140" height="8" as="geometry" />
        </mxCell>
        <mxCell id="MmHxZjk0SOA4-LWG_Dqx-17" style="edgeStyle=orthogonalEdgeStyle;rounded=0;orthogonalLoop=1;jettySize=auto;html=1;exitX=0.5;exitY=0;exitDx=0;exitDy=0;entryX=0.501;entryY=1.005;entryDx=0;entryDy=0;entryPerimeter=0;" edge="1" parent="1" source="MmHxZjk0SOA4-LWG_Dqx-13" target="MmHxZjk0SOA4-LWG_Dqx-8">
          <mxGeometry relative="1" as="geometry">
            <Array as="points">
              <mxPoint x="240" y="580" />
              <mxPoint x="240" y="580" />
            </Array>
          </mxGeometry>
        </mxCell>
        <mxCell id="MmHxZjk0SOA4-LWG_Dqx-13" value="CarModel" style="swimlane;fontStyle=1;align=center;verticalAlign=top;childLayout=stackLayout;horizontal=1;startSize=26;horizontalStack=0;resizeParent=1;resizeParentMax=0;resizeLast=0;collapsible=1;marginBottom=0;whiteSpace=wrap;html=1;fillColor=#66B2FF;" vertex="1" parent="1">
          <mxGeometry x="160" y="640" width="160" height="148" as="geometry" />
        </mxCell>
        <mxCell id="MmHxZjk0SOA4-LWG_Dqx-14" value="&lt;div&gt;+ getInfo(): void&lt;/div&gt;&lt;div&gt;+ carModel()&lt;br&gt;&lt;/div&gt;" style="text;strokeColor=none;fillColor=none;align=left;verticalAlign=top;spacingLeft=4;spacingRight=4;overflow=hidden;rotatable=0;points=[[0,0.5],[1,0.5]];portConstraint=eastwest;whiteSpace=wrap;html=1;" vertex="1" parent="MmHxZjk0SOA4-LWG_Dqx-13">
          <mxGeometry y="26" width="160" height="44" as="geometry" />
        </mxCell>
        <mxCell id="MmHxZjk0SOA4-LWG_Dqx-15" value="" style="line;strokeWidth=1;fillColor=none;align=left;verticalAlign=middle;spacingTop=-1;spacingLeft=3;spacingRight=3;rotatable=0;labelPosition=right;points=[];portConstraint=eastwest;strokeColor=inherit;" vertex="1" parent="MmHxZjk0SOA4-LWG_Dqx-13">
          <mxGeometry y="70" width="160" height="8" as="geometry" />
        </mxCell>
        <mxCell id="MmHxZjk0SOA4-LWG_Dqx-16" value="&lt;div&gt;+ make: String&lt;/div&gt;&lt;div&gt;+ model: String&lt;/div&gt;&lt;div&gt;+ year: int&lt;br&gt;&lt;/div&gt;&lt;div&gt;+ color: String&lt;/div&gt;" style="text;strokeColor=none;fillColor=none;align=left;verticalAlign=top;spacingLeft=4;spacingRight=4;overflow=hidden;rotatable=0;points=[[0,0.5],[1,0.5]];portConstraint=eastwest;whiteSpace=wrap;html=1;" vertex="1" parent="MmHxZjk0SOA4-LWG_Dqx-13">
          <mxGeometry y="78" width="160" height="70" as="geometry" />
        </mxCell>
        <mxCell id="MmHxZjk0SOA4-LWG_Dqx-18" style="orthogonalLoop=1;jettySize=auto;html=1;endArrow=diamond;endFill=0;rounded=0;strokeColor=default;exitX=0;exitY=0.5;exitDx=0;exitDy=0;entryX=1;entryY=0.5;entryDx=0;entryDy=0;" edge="1" parent="1" source="MmHxZjk0SOA4-LWG_Dqx-6" target="MmHxZjk0SOA4-LWG_Dqx-2">
          <mxGeometry relative="1" as="geometry">
            <mxPoint x="140" y="530" as="sourcePoint" />
            <mxPoint x="110" y="530" as="targetPoint" />
          </mxGeometry>
        </mxCell>
      </root>
    </mxGraphModel>
  </diagram>
</mxfile>
